<svg id="two_wheeler-24px" xmlns="http://www.w3.org/2000/svg" width="102" height="102" viewBox="0 0 102 102">
  <rect id="Rectangle_7" data-name="Rectangle 7" width="102" height="102" fill="none"/>
  <path id="Path_10" data-name="Path 10" d="M85,30.5a19.269,19.269,0,0,0-2.253.213L73.993,22H85V9.25l-15.81,7.9L56.993,5H38.25v8.5H53.507l8.5,8.5H46.75l-17,8.5L21.25,22H0v8.5H17a17,17,0,1,0,17,17L42.5,56H55.25L70.082,30.075l4.293,4.293A16.813,16.813,0,0,0,68,47.5a17,17,0,1,0,17-17ZM17,56a8.5,8.5,0,1,1,8.5-8.5A8.525,8.525,0,0,1,17,56Zm68,0a8.5,8.5,0,1,1,8.5-8.5A8.525,8.525,0,0,1,85,56Z" transform="translate(0 16.25)" fill="#fff"/>
</svg>
