<svg id="arrow" xmlns="http://www.w3.org/2000/svg" width="85.241" height="85.207" viewBox="0 0 85.241 85.207">
  <path id="Path_47" data-name="Path 47" d="M2479.166,2362.335V2361a3.638,3.638,0,0,1,2.377-2c2.612-.915,5.2-1.892,7.781-2.9a1.806,1.806,0,0,0,.919-.919c1.007-2.578,1.984-5.169,2.9-7.781a3.635,3.635,0,0,1,2-2.377h1.331c.654.539,1.349,1.035,1.954,1.624,1.767,1.723,3.52,3.462,5.23,5.241a1.086,1.086,0,0,0,1.533.279,38.752,38.752,0,0,1,13.4-3.945,41.129,41.129,0,1,1,7.7,81.88,39.791,39.791,0,0,1-27.693-8.111,40.962,40.962,0,0,1-12.186-51.17.809.809,0,0,0-.205-1.123q-2.733-2.677-5.412-5.411C2480.2,2363.684,2479.705,2362.989,2479.166,2362.335Zm30.192,3.178a27.343,27.343,0,1,1,.011,47.109,26.3,26.3,0,0,1-11.757-14.071c-2.908-8.013-2.114-15.773,2.034-23.336-1.678.3-3.235.541-4.774.869a3.115,3.115,0,0,1-3.3-.991c-.332-.387-.732-.715-1.124-1.092a36.023,36.023,0,0,0,12.6,45.04c15.307,10.4,35.588,7.52,47.851-6.7,11.627-13.481,11.274-34.09-.842-47.442-12.461-13.731-30.746-14.177-42.052-8.435.339.239.618.423.882.625a3.458,3.458,0,0,1,1.284,3.977C2509.8,2362.479,2509.635,2363.942,2509.358,2365.513Zm-3.523,9.7a22.3,22.3,0,1,0,32.7-2.362c-9-8.524-22.012-7.319-29.126-1.173.164.18.319.367.49.539,1.7,1.708,3.43,3.4,5.1,5.131.457.474.754.463,1.315.149,4.885-2.741,9.806-2.726,14.447.4a12.842,12.842,0,0,1,5.837,13.151,13.507,13.507,0,0,1-26.207,2.294,13.259,13.259,0,0,1,1.282-11.276c.176-.3.465-.542.074-.929C2509.786,2379.193,2507.839,2377.224,2505.835,2375.214Zm9.889,9.9a8.518,8.518,0,1,0,13.755-1.834c-2.635-2.823-7.515-3.628-10.26-1.558a7.164,7.164,0,0,1,.749.57c1.673,1.66,3.346,3.321,5,5a2.5,2.5,0,0,1-1.368,4.268,2.56,2.56,0,0,1-2.311-.875C2519.453,2388.842,2517.611,2387,2515.724,2385.116Zm-11.643-18.648c.371-2.006.72-3.768,1-5.542a1.256,1.256,0,0,0-.365-.91c-2.467-2.5-4.959-4.983-7.447-7.466a6.715,6.715,0,0,0-.53-.423c-.561,1.508-1.067,2.94-1.631,4.348a.957.957,0,0,0,.252,1.222c2.468,2.425,4.905,4.881,7.348,7.33C2503.133,2365.454,2503.54,2365.9,2504.081,2366.468Zm-17.911-3.83c2.8,2.794,5.484,5.469,8.175,8.135a.691.691,0,0,0,.5.205c1.859-.318,3.713-.663,5.715-1.027-3.077-3.074-6.027-6.028-9-8.963a.759.759,0,0,0-.653-.108C2489.383,2361.424,2487.865,2362,2486.17,2362.638Z" transform="translate(-2479.166 -2345.025)" fill="#fff"/>
</svg>
