<svg id="eye" xmlns="http://www.w3.org/2000/svg" width="123.218" height="66.143" viewBox="0 0 123.218 66.143">
  <g id="Group_85" data-name="Group 85" transform="translate(-3347.459 -2362.232)" opacity="0.88">
    <path id="Path_48" data-name="Path 48" d="M3470.677,2396.268c-1.7,1.9-3.27,3.921-5.106,5.671-9.566,9.119-20.213,16.655-32.537,21.616q-24.63,9.914-49.1-.5c-13.448-5.705-24.9-14.271-34.977-24.758-2-2.085-2-3.892,0-5.976,10.015-10.432,21.4-18.958,34.755-24.666,17.691-7.562,35.3-7.151,52.742.864a107.218,107.218,0,0,1,32.762,23.82,17.549,17.549,0,0,1,1.457,2.009Zm-61.587,24.956a25.92,25.92,0,1,0-26.22-25.975A26.149,26.149,0,0,0,3409.09,2421.224Zm27.826-44.441c7.481,12.425,7.463,24.619,0,37.043a103.119,103.119,0,0,0,25.147-18.521A103.053,103.053,0,0,0,3436.916,2376.783Zm-80.811,18.526a102.951,102.951,0,0,0,25.139,18.5c-7.478-12.432-7.457-24.626.007-37.023A103.236,103.236,0,0,0,3356.1,2395.309Z" fill="#fff"/>
    <path id="Path_49" data-name="Path 49" d="M3419.851,2396.811c-2.732,2.753-5.236,5.292-7.758,7.812-2.043,2.041-3.987,2.029-6.037-.024-1.356-1.359-2.693-2.738-4.165-4.236-1.372,1.378-2.658,2.675-3.95,3.967-2.061,2.061-4.149,2.3-5.777.672s-1.4-3.71.663-5.772q2.973-2.977,5.948-5.954c2.147-2.143,4.036-2.132,6.213.033q1.917,1.908,3.832,3.82c.054.053.134.08.071.044l5.481-5.48c-.51,0-1.136.025-1.76,0a3.632,3.632,0,0,1-3.522-3.557,3.586,3.586,0,0,1,3.553-3.638q5.47-.067,10.941,0a3.542,3.542,0,0,1,3.535,3.65c.034,3.126.026,6.252,0,9.378a3.607,3.607,0,1,1-7.21.147C3419.9,2397.483,3419.886,2397.3,3419.851,2396.811Z" fill="#fff"/>
  </g>
</svg>
