<svg xmlns="http://www.w3.org/2000/svg" width="22.837" height="18.56" viewBox="0 0 22.837 18.56">
  <g id="Logo-Twitter" transform="translate(-540.181 -569.849)">
    <path id="Path_1" data-name="Path 1" d="M547.363,588.41a13.241,13.241,0,0,0,13.331-13.331q0-.3-.013-.606a9.529,9.529,0,0,0,2.337-2.426,9.344,9.344,0,0,1-2.691.738,4.7,4.7,0,0,0,2.06-2.592,9.4,9.4,0,0,1-2.975,1.137,4.689,4.689,0,0,0-7.984,4.273,13.3,13.3,0,0,1-9.658-4.9,4.69,4.69,0,0,0,1.451,6.255,4.651,4.651,0,0,1-2.122-.586c0,.02,0,.039,0,.06a4.687,4.687,0,0,0,3.759,4.593,4.678,4.678,0,0,1-2.116.08,4.69,4.69,0,0,0,4.377,3.254,9.4,9.4,0,0,1-5.819,2.006,9.512,9.512,0,0,1-1.118-.065,13.263,13.263,0,0,0,7.182,2.1" fill="#070707"/>
  </g>
</svg>
